HIERARCHY
ROOT Hips
{
	OFFSET 0.00000 0.00000 0.00000
	CHANNELS 6 Xposition Yposition Zposition Zrotation Yrotation Xrotation 
	JOINT LHipJoint
	{
		OFFSET 0 0 0
		CHANNELS 3 Zrotation Yrotation Xrotation
		JOINT LeftHip
		{
			OFFSET 1.34019 -1.87553 0.90315
			CHANNELS 3 Zrotation Yrotation Xrotation
			JOINT LeftKnee
			{
				OFFSET 2.55316 -7.01474 0.00000
				CHANNELS 3 Zrotation Yrotation Xrotation
				JOINT LeftAnkle
				{
					OFFSET 2.64657 -7.27139 0.00000
					CHANNELS 3 Zrotation Yrotation Xrotation
					JOINT LeftToe
					{
						OFFSET 0.24207 -0.66507 2.14489
						CHANNELS 3 Zrotation Yrotation Xrotation
						End Site
						{
							OFFSET 0.00000 -0.00000 1.12451
						}
					}
				}
			}
		}
	}
	JOINT RHipJoint
	{
		OFFSET 0 0 0
		CHANNELS 3 Zrotation Yrotation Xrotation
		JOINT RightHip
		{
			OFFSET -1.28320 -1.87553 0.90315
			CHANNELS 3 Zrotation Yrotation Xrotation
			JOINT RightKnee
			{
				OFFSET -2.60484 -7.15674 0.00000
				CHANNELS 3 Zrotation Yrotation Xrotation
				JOINT RightAnkle
				{
					OFFSET -2.60296 -7.15159 0.00000
					CHANNELS 3 Zrotation Yrotation Xrotation
					JOINT RightToe
					{
						OFFSET -0.31082 -0.85398 2.28998
						CHANNELS 3 Zrotation Yrotation Xrotation
						End Site
						{
							OFFSET -0.00000 -0.00000 1.21611
						}
					}
				}
			}
		}
	}
	JOINT lowerback
	{
		OFFSET 0 0 0
		CHANNELS 3 Zrotation Yrotation Xrotation
		JOINT Chest
		{
			OFFSET -0.00160 2.05581 -0.15156
			CHANNELS 3 Zrotation Yrotation Xrotation
			JOINT Chest2
			{
				OFFSET 0.04594 2.06326 -0.01617
				CHANNELS 3 Zrotation Yrotation Xrotation
				JOINT lowerneck
				{
					OFFSET 0 0 0
					CHANNELS 3 Zrotation Yrotation Xrotation
					JOINT Neck
					{
						OFFSET 0.03753 1.73883 0.26751
						CHANNELS 3 Zrotation Yrotation Xrotation
						JOINT Head
						{
							OFFSET -0.09795 1.76129 -0.31794
							CHANNELS 3 Zrotation Yrotation Xrotation
							End Site
							{
								OFFSET -0.03611 1.79987 -0.13846
							}
						}
					}
				}
				JOINT LeftCollar
				{
					OFFSET 0 0 0
					CHANNELS 3 Zrotation Yrotation Xrotation
					JOINT LeftShoulder
					{
						OFFSET 3.30667 1.29205 -0.22445
CHANNELS 3 Zrotation Xrotation Yrotation
						JOINT LeftElbow
						{
OFFSET 0 -4.927850 -0.000000
CHANNELS 3 Zrotation Xrotation Yrotation
							JOINT LeftWrist
							{
OFFSET 0 -3.440520 0.000000
CHANNELS 3 Zrotation Xrotation Yrotation
								JOINT lhand
								{
									OFFSET 0 0 0
CHANNELS 3 Zrotation Xrotation Yrotation
									JOINT LFingers
									{
OFFSET 0 -0.654330 0.000000
CHANNELS 3 Zrotation Xrotation Yrotation
										End Site
										{
OFFSET 0 -0.527530 0.000000
										}
									}
								}
								JOINT LThumb
								{
OFFSET 0 0.000000 0.000000
CHANNELS 3 Zrotation Xrotation Yrotation
									End Site
									{
OFFSET 0 -0.535590 0.535590
									}
								}
							}
						}
					}
				}
				JOINT RightCollar
				{
					OFFSET 0 0 0
					CHANNELS 3 Zrotation Yrotation Xrotation
					JOINT RightShoulder
					{
						OFFSET -3.20032 1.49783 -0.27688
CHANNELS 3 Zrotation Xrotation Yrotation
						JOINT RightElbow
						{
OFFSET 0 -5.091810 -0.000000
CHANNELS 3 Zrotation Xrotation Yrotation
							JOINT RightWrist
							{
OFFSET 0 -3.498650 -0.000000
CHANNELS 3 Zrotation Xrotation Yrotation
								JOINT rhand
								{
									OFFSET 0 0 0
CHANNELS 3 Zrotation Xrotation Yrotation
									JOINT RFingers
									{
OFFSET 0 -0.666410 0.000000
CHANNELS 3 Zrotation Xrotation Yrotation
										End Site
										{
OFFSET 0 -0.537280 0.000000
										}
									}
								}
								JOINT RThumb
								{
OFFSET 0 0.000000 0.000000
CHANNELS 3 Zrotation Xrotation Yrotation
									End Site
									{
OFFSET 0 -0.545480 0.545480
									}
								}
							}
						}
					}
				}
			}
		}
	}
}
MOTION
Frames: 9
Frame Time: 0.008333333333333333
0.822100 17.801700 -31.615400 -1.511600 36.729300 1.104300 0.000000 0.000000 0.000000 -15.461200 -14.970400 -11.052500 2.900300 10.531800 30.716800 0.604400 -3.079300 -13.959700 0.251200 -3.225000 -8.905800 0.000000 0.000000 0.000000 19.597200 -13.404100 -4.865900 -1.980100 -8.824500 25.247800 1.920400 -31.285000 -34.153400 -0.022700 -0.971700 2.671000 -1.707500 8.332400 -2.851600 4.924600 11.206700 -0.833900 6.167900 5.687000 -0.603300 13.550800 18.626000 1.595200 -15.039100 26.542200 6.292400 -4.673900 13.165600 5.443300 0.000000 -0.000000 0.000000 -7.828300 5.213000 11.625700 7.412300 -12.595700 0.819200 33.033700 -0.050400 14.039700 0.000000 0.000000 0.000000 -7.125000 0.000000 0.000000 3.762000 13.397200 2.794100 0.000000 -0.000000 0.000000 -13.079700 -7.886800 32.950000 -23.313600 -34.429900 -7.314800 -20.331000 -16.577900 -1.569900 0.000000 0.000000 0.000000 7.125000 0.000000 -0.000000 4.837500 28.293500 1.973100
0.815597 17.801244 -31.610551 -1.488532 36.590763 1.115208 0.000000 0.000000 0.000000 -15.454043 -14.897966 -11.031473 2.895115 10.523312 30.688453 0.605002 -3.025862 -13.972990 0.253973 -3.242553 -8.954810 0.000000 0.000000 0.000000 19.581423 -13.366543 -4.852978 -1.979577 -8.823436 25.244491 1.918041 -31.231855 -34.063041 -0.021503 -0.946283 2.600973 -0.331596 8.254706 -1.956751 3.705833 11.070358 -1.339626 4.026450 5.590277 -1.098156 14.343604 18.803893 1.999886 -14.179530 26.577880 5.605865 -4.586633 13.231823 5.148540 0.000000 0.000000 0.000000 -6.122940 5.857236 9.414519 7.832188 -13.280156 0.913481 33.443543 -3.709181 14.098744 0.000000 0.000000 0.000000 -7.125000 0.000000 0.000000 4.028174 13.258810 3.004293 0.000000 0.000000 0.000000 -10.835933 -7.511646 33.477448 -23.376114 -34.497578 -7.350243 -20.372942 -16.269736 -1.947642 0.000000 0.000000 0.000000 7.125000 0.000000 0.000000 4.790453 27.891740 1.999357
0.809091 17.800397 -31.606633 -1.532859 36.456781 1.086803 0.000000 0.000000 0.000000 -15.387396 -14.869582 -11.025679 2.896833 10.526149 30.698003 0.605546 -2.910130 -13.995362 0.254836 -3.248105 -8.970273 0.000000 0.000000 0.000000 19.626543 -13.332302 -4.827256 -1.973069 -8.809742 25.201974 1.907162 -31.172142 -34.012571 -0.020779 -0.931391 2.560040 0.847702 8.389583 -1.256845 2.586852 11.239779 -1.824850 2.142638 5.642734 -1.540876 15.358197 18.704320 2.154922 -13.539324 26.307515 5.279010 -4.585555 13.127809 5.021944 0.000000 0.000000 0.000000 -4.414065 6.385459 7.200193 8.153688 -13.801638 0.988492 33.334738 -6.218149 14.465888 0.000000 0.000000 0.000000 -7.125000 0.000000 0.000000 3.907580 12.849534 2.947786 0.000000 0.000000 0.000000 -8.882467 -6.886691 33.427733 -23.455273 -34.582925 -7.395071 -20.313175 -15.811329 -2.056239 0.000000 0.000000 0.000000 7.125000 0.000000 0.000000 4.832377 27.776967 2.030277
0.802690 17.800582 -31.603882 -1.603444 36.353575 1.025988 0.000000 0.000000 0.000000 -15.307801 -14.881752 -10.973742 2.897795 10.527714 30.703118 0.607473 -2.806078 -14.032902 0.253200 -3.237677 -8.941114 0.000000 0.000000 0.000000 19.694703 -13.311067 -4.786952 -1.966968 -8.796940 25.162129 1.887372 -31.103665 -34.000010 -0.020723 -0.929631 2.555276 1.622573 8.813907 -0.840779 1.665241 11.807631 -2.254747 0.722573 5.898223 -1.887075 16.705502 18.234174 2.173906 -13.382889 25.616440 5.152233 -4.786943 12.806001 5.030385 0.000000 0.000000 0.000000 -2.848132 6.728155 4.789151 8.299587 -14.037172 1.023640 33.631748 -7.432199 14.613605 0.000000 0.000000 0.000000 -7.125000 0.000000 0.000000 4.085180 12.624785 3.101791 0.000000 0.000000 0.000000 -7.279505 -5.999483 32.253788 -23.515289 -34.647503 -7.429161 -20.089973 -15.437891 -2.162514 0.000000 0.000000 0.000000 7.125000 0.000000 0.000000 5.000161 27.666600 2.114254
0.795830 17.800421 -31.601560 -1.641788 36.252504 0.985918 0.000000 0.000000 0.000000 -15.259624 -14.920952 -10.921289 2.898788 10.529340 30.708591 0.608430 -2.665185 -14.065842 0.253042 -3.236460 -8.937696 0.000000 0.000000 0.000000 19.733482 -13.297433 -4.753909 -1.960387 -8.783023 25.119024 1.883503 -31.062279 -33.942271 -0.020285 -0.919860 2.528276 2.241239 9.046995 -0.463899 0.961990 12.125529 -2.573572 -0.378657 6.031538 -2.149135 17.486076 17.979025 2.259240 -13.156448 25.207973 4.857502 -4.887175 12.620918 4.931173 0.000000 0.000000 0.000000 -1.729607 7.011669 2.734445 8.499731 -14.359529 1.072689 34.091696 -8.645057 14.676677 0.000000 0.000000 0.000000 -7.125000 0.000000 0.000000 4.381306 12.468003 3.342291 0.000000 0.000000 0.000000 -6.032045 -5.339931 31.670613 -23.528284 -34.661448 -7.436545 -19.933919 -14.988231 -2.308925 0.000000 0.000000 0.000000 7.125000 0.000000 0.000000 5.114468 27.513205 2.181464
0.788789 17.800302 -31.600018 -1.659327 36.171871 0.953980 0.000000 0.000000 0.000000 -15.232297 -14.962295 -10.860578 2.896636 10.525760 30.696601 0.608502 -2.539627 -14.087067 0.252311 -3.232160 -8.925767 0.000000 0.000000 0.000000 19.751817 -13.303286 -4.732439 -1.956147 -8.774098 25.091304 1.881327 -31.022800 -33.878114 -0.019905 -0.910614 2.502913 2.535739 9.115263 -0.260416 0.618552 12.220872 -2.688316 -0.910892 6.066418 -2.244269 17.641876 17.910970 2.271227 -13.040083 25.052415 4.456099 -4.913174 12.547142 4.785440 0.000000 0.000000 0.000000 -1.279484 7.046025 1.462572 8.677600 -14.645071 1.117247 34.588836 -9.360483 14.729337 0.000000 0.000000 0.000000 -7.125000 0.000000 0.000000 4.702652 12.314537 3.603901 0.000000 0.000000 0.000000 -5.376190 -4.953672 31.566851 -23.453134 -34.580620 -7.393845 -19.726217 -14.573278 -2.440298 0.000000 0.000000 0.000000 7.125000 0.000000 0.000000 5.268778 27.376760 2.264821
0.781472 17.800164 -31.599227 -1.654035 36.115340 0.934307 0.000000 0.000000 0.000000 -15.224663 -14.985673 -10.809186 2.892409 10.518772 30.673633 0.608145 -2.455966 -14.096164 0.251891 -3.229181 -8.917453 0.000000 0.000000 0.000000 19.747972 -13.333059 -4.724399 -1.953982 -8.769463 25.076817 1.875790 -30.974630 -33.817467 -0.019700 -0.905809 2.489737 2.599133 9.099354 -0.171739 0.503890 12.200633 -2.698232 -1.071618 6.052912 -2.266209 17.539860 17.916708 2.286646 -13.012427 25.018261 4.103597 -4.917489 12.529230 4.653258 0.000000 0.000000 0.000000 -1.223171 6.961579 0.622905 8.831790 -14.891946 1.156532 34.995103 -9.757643 14.845274 0.000000 0.000000 0.000000 -7.125000 0.000000 0.000000 4.953788 12.101233 3.819935 0.000000 0.000000 0.000000 -5.095158 -4.672327 31.684871 -23.291881 -34.406306 -7.302575 -19.480835 -14.192092 -2.596009 0.000000 0.000000 0.000000 7.125000 0.000000 0.000000 5.450694 27.215645 2.364403
0.773861 17.799924 -31.598862 -1.648620 36.073889 0.916051 0.000000 0.000000 0.000000 -15.211255 -14.982589 -10.775220 2.888012 10.511540 30.649575 0.607824 -2.417761 -14.099183 0.251248 -3.225263 -8.906492 0.000000 0.000000 0.000000 19.748186 -13.362252 -4.720639 -1.952659 -8.766742 25.068326 1.865892 -30.924295 -33.779848 -0.019814 -0.909133 2.498768 2.568633 9.049340 -0.124728 0.485797 12.133895 -2.675388 -1.079914 6.019747 -2.272745 17.379939 17.944230 2.293136 -13.028481 25.028882 3.844901 -4.916214 12.532348 4.556996 0.000000 0.000000 0.000000 -1.314651 6.802241 0.101255 8.957353 -15.092418 1.188989 35.199342 -9.993192 15.083096 0.000000 0.000000 0.000000 -7.125000 0.000000 0.000000 5.053328 11.780987 3.930862 0.000000 0.000000 0.000000 -4.963918 -4.423523 31.868069 -23.055080 -34.148774 -7.169305 -19.266895 -13.854776 -2.742638 0.000000 0.000000 0.000000 7.125000 0.000000 0.000000 5.608426 27.063919 2.453570
0.765611 17.799627 -31.598800 -1.659822 36.043598 0.888373 0.000000 0.000000 0.000000 -15.177838 -14.964995 -10.755673 2.884403 10.505581 30.629894 0.607758 -2.409338 -14.099767 0.250827 -3.222478 -8.898751 0.000000 0.000000 0.000000 19.770603 -13.376085 -4.713313 -1.951351 -8.763887 25.059589 1.855386 -30.886219 -33.770795 -0.020173 -0.917196 2.520993 2.566328 9.105840 -0.070063 0.386145 12.210205 -2.723174 -1.191311 6.055454 -2.328797 17.590607 17.834300 2.320299 -13.095735 24.881870 3.769910 -4.983978 12.462103 4.542922 0.000000 0.000000 0.000000 -1.172480 6.680570 -0.735350 9.047504 -15.236075 1.212576 35.280884 -10.140147 15.358925 0.000000 0.000000 0.000000 -7.125000 0.000000 0.000000 5.065896 11.439053 3.976524 0.000000 0.000000 0.000000 -4.677951 -4.026646 31.646237 -22.772680 -33.839008 -7.011396 -19.064857 -13.517754 -2.887450 0.000000 0.000000 0.000000 7.125000 0.000000 0.000000 5.756855 26.914522 2.539400
